<?xml version="1.0" encoding="UTF-8" standalone="no"?>
<!DOCTYPE svg PUBLIC "-//W3C//DTD SVG 1.1//EN"
 "http://www.w3.org/Graphics/SVG/1.1/DTD/svg11.dtd">
<!-- Generated by graphviz version 2.43.0 (0)
 -->
<!-- Title: %3 Pages: 1 -->
<svg width="117pt" height="188pt"
 viewBox="0.00 0.00 117.00 188.00" xmlns="http://www.w3.org/2000/svg" xmlns:xlink="http://www.w3.org/1999/xlink">
<g id="graph0" class="graph" transform="scale(1 1) rotate(0) translate(4 184)">
<title>%3</title>
<polygon fill="white" stroke="transparent" points="-4,4 -4,-184 113,-184 113,4 -4,4"/>
<!-- A -->
<g id="node1" class="node">
<title>A</title>
<text text-anchor="middle" x="55" y="-158.3" font-family="Times,serif" font-size="14.00">A</text>
</g>
<!-- B -->
<g id="node2" class="node">
<title>B</title>
<text text-anchor="middle" x="55" y="-86.3" font-family="Times,serif" font-size="14.00">B</text>
</g>
<!-- A&#45;&gt;B -->
<g id="edge2" class="edge">
<title>A&#45;&gt;B</title>
<path fill="none" stroke="blue" d="M55,-143.7C55,-135.98 55,-126.71 55,-118.11"/>
<polygon fill="blue" stroke="blue" points="58.5,-118.1 55,-108.1 51.5,-118.1 58.5,-118.1"/>
</g>
<!-- C -->
<g id="node3" class="node">
<title>C</title>
<text text-anchor="middle" x="18" y="-14.3" font-family="Times,serif" font-size="14.00">C</text>
</g>
<!-- A&#45;&gt;C -->
<g id="edge3" class="edge">
<title>A&#45;&gt;C</title>
<path fill="none" stroke="blue" d="M44.35,-144C38.55,-133.91 31.8,-120.66 28,-108 21.94,-87.8 19.49,-64.03 18.53,-46.13"/>
<polygon fill="blue" stroke="blue" points="22.03,-45.94 18.12,-36.09 15.03,-46.23 22.03,-45.94"/>
</g>
<!-- D -->
<g id="node4" class="node">
<title>D</title>
<text text-anchor="middle" x="91" y="-14.3" font-family="Times,serif" font-size="14.00">D</text>
</g>
<!-- A&#45;&gt;D -->
<g id="edge1" class="edge">
<title>A&#45;&gt;D</title>
<path fill="none" stroke="blue" d="M65.98,-143.54C71.73,-133.52 78.33,-120.48 82,-108 87.94,-87.79 90.11,-64.02 90.84,-46.13"/>
<polygon fill="blue" stroke="blue" points="94.34,-46.18 91.13,-36.09 87.35,-45.98 94.34,-46.18"/>
</g>
<!-- B&#45;&gt;C -->
<g id="edge5" class="edge">
<title>B&#45;&gt;C</title>
<path fill="none" stroke="blue" d="M45.85,-71.7C41.6,-63.64 36.44,-53.89 31.73,-44.98"/>
<polygon fill="blue" stroke="blue" points="34.81,-43.31 27.04,-36.1 28.62,-46.58 34.81,-43.31"/>
</g>
<!-- B&#45;&gt;D -->
<g id="edge4" class="edge">
<title>B&#45;&gt;D</title>
<path fill="none" stroke="blue" d="M63.9,-71.7C68,-63.73 72.95,-54.1 77.49,-45.26"/>
<polygon fill="blue" stroke="blue" points="80.74,-46.6 82.2,-36.1 74.52,-43.4 80.74,-46.6"/>
</g>
</g>
</svg>
