<?xml version="1.0" encoding="UTF-8" standalone="no"?>
<!DOCTYPE svg PUBLIC "-//W3C//DTD SVG 1.1//EN"
 "http://www.w3.org/Graphics/SVG/1.1/DTD/svg11.dtd">
<!-- Generated by graphviz version 2.43.0 (0)
 -->
<!-- Title: %3 Pages: 1 -->
<svg width="98pt" height="188pt"
 viewBox="0.00 0.00 98.00 188.00" xmlns="http://www.w3.org/2000/svg" xmlns:xlink="http://www.w3.org/1999/xlink">
<g id="graph0" class="graph" transform="scale(1 1) rotate(0) translate(4 184)">
<title>%3</title>
<polygon fill="white" stroke="transparent" points="-4,4 -4,-184 94,-184 94,4 -4,4"/>
<!-- A -->
<g id="node1" class="node">
<title>A</title>
<text text-anchor="middle" x="41" y="-158.3" font-family="Times,serif" font-size="14.00">A</text>
</g>
<!-- B -->
<g id="node2" class="node">
<title>B</title>
<text text-anchor="middle" x="64" y="-86.3" font-family="Times,serif" font-size="14.00">B</text>
</g>
<!-- A&#45;&gt;B -->
<g id="edge1" class="edge">
<title>A&#45;&gt;B</title>
<path fill="none" stroke="blue" d="M46.69,-143.7C49.25,-135.9 52.33,-126.51 55.18,-117.83"/>
<polygon fill="blue" stroke="blue" points="58.58,-118.7 58.38,-108.1 51.93,-116.51 58.58,-118.7"/>
</g>
<!-- C -->
<g id="node3" class="node">
<title>C</title>
<text text-anchor="middle" x="18" y="-14.3" font-family="Times,serif" font-size="14.00">C</text>
</g>
<!-- A&#45;&gt;C -->
<g id="edge2" class="edge">
<title>A&#45;&gt;C</title>
<path fill="none" stroke="blue" d="M38.23,-143.87C34.31,-119.67 27.1,-75.21 22.44,-46.39"/>
<polygon fill="blue" stroke="blue" points="25.84,-45.5 20.78,-36.19 18.93,-46.62 25.84,-45.5"/>
</g>
<!-- B&#45;&gt;C -->
<g id="edge4" class="edge">
<title>B&#45;&gt;C</title>
<path fill="none" stroke="blue" d="M52.63,-71.7C47.28,-63.56 40.8,-53.69 34.89,-44.7"/>
<polygon fill="blue" stroke="blue" points="37.66,-42.54 29.24,-36.1 31.81,-46.38 37.66,-42.54"/>
</g>
<!-- D -->
<g id="node4" class="node">
<title>D</title>
<text text-anchor="middle" x="72" y="-14.3" font-family="Times,serif" font-size="14.00">D</text>
</g>
<!-- B&#45;&gt;D -->
<g id="edge3" class="edge">
<title>B&#45;&gt;D</title>
<path fill="none" stroke="blue" d="M65.98,-71.7C66.86,-63.98 67.92,-54.71 68.9,-46.11"/>
<polygon fill="blue" stroke="blue" points="72.39,-46.44 70.05,-36.1 65.43,-45.64 72.39,-46.44"/>
</g>
</g>
</svg>
