<?xml version="1.0" encoding="UTF-8" standalone="no"?>
<!DOCTYPE svg PUBLIC "-//W3C//DTD SVG 1.1//EN"
 "http://www.w3.org/Graphics/SVG/1.1/DTD/svg11.dtd">
<!-- Generated by graphviz version 2.43.0 (0)
 -->
<!-- Title: %3 Pages: 1 -->
<svg width="98pt" height="188pt"
 viewBox="0.00 0.00 98.00 188.00" xmlns="http://www.w3.org/2000/svg" xmlns:xlink="http://www.w3.org/1999/xlink">
<g id="graph0" class="graph" transform="scale(1 1) rotate(0) translate(4 184)">
<title>%3</title>
<polygon fill="white" stroke="transparent" points="-4,4 -4,-184 94,-184 94,4 -4,4"/>
<!-- A -->
<g id="node1" class="node">
<title>A</title>
<text text-anchor="middle" x="72" y="-158.3" font-family="Times,serif" font-size="14.00">A</text>
</g>
<!-- C -->
<g id="node3" class="node">
<title>C</title>
<text text-anchor="middle" x="26" y="-86.3" font-family="Times,serif" font-size="14.00">C</text>
</g>
<!-- A&#45;&gt;C -->
<g id="edge2" class="edge">
<title>A&#45;&gt;C</title>
<path fill="none" stroke="blue" d="M60.63,-143.7C55.28,-135.56 48.8,-125.69 42.89,-116.7"/>
<polygon fill="blue" stroke="blue" points="45.66,-114.54 37.24,-108.1 39.81,-118.38 45.66,-114.54"/>
</g>
<!-- D -->
<g id="node4" class="node">
<title>D</title>
<text text-anchor="middle" x="49" y="-14.3" font-family="Times,serif" font-size="14.00">D</text>
</g>
<!-- A&#45;&gt;D -->
<g id="edge1" class="edge">
<title>A&#45;&gt;D</title>
<path fill="none" stroke="blue" d="M69.23,-143.87C65.31,-119.67 58.1,-75.21 53.44,-46.39"/>
<polygon fill="blue" stroke="blue" points="56.84,-45.5 51.78,-36.19 49.93,-46.62 56.84,-45.5"/>
</g>
<!-- B -->
<g id="node2" class="node">
<title>B</title>
<text text-anchor="middle" x="18" y="-158.3" font-family="Times,serif" font-size="14.00">B</text>
</g>
<!-- B&#45;&gt;C -->
<g id="edge4" class="edge">
<title>B&#45;&gt;C</title>
<path fill="none" stroke="blue" d="M19.98,-143.7C20.86,-135.98 21.92,-126.71 22.9,-118.11"/>
<polygon fill="blue" stroke="blue" points="26.39,-118.44 24.05,-108.1 19.43,-117.64 26.39,-118.44"/>
</g>
<!-- C&#45;&gt;D -->
<g id="edge3" class="edge">
<title>C&#45;&gt;D</title>
<path fill="none" stroke="blue" d="M31.69,-71.7C34.25,-63.9 37.33,-54.51 40.18,-45.83"/>
<polygon fill="blue" stroke="blue" points="43.58,-46.7 43.38,-36.1 36.93,-44.51 43.58,-46.7"/>
</g>
</g>
</svg>
