<?xml version="1.0" encoding="UTF-8" standalone="no"?>
<!DOCTYPE svg PUBLIC "-//W3C//DTD SVG 1.1//EN"
 "http://www.w3.org/Graphics/SVG/1.1/DTD/svg11.dtd">
<!-- Generated by graphviz version 2.43.0 (0)
 -->
<!-- Title: %3 Pages: 1 -->
<svg width="105pt" height="260pt"
 viewBox="0.00 0.00 105.00 260.00" xmlns="http://www.w3.org/2000/svg" xmlns:xlink="http://www.w3.org/1999/xlink">
<g id="graph0" class="graph" transform="scale(1 1) rotate(0) translate(4 256)">
<title>%3</title>
<polygon fill="white" stroke="transparent" points="-4,4 -4,-256 101,-256 101,4 -4,4"/>
<!-- A -->
<g id="node1" class="node">
<title>A</title>
<text text-anchor="middle" x="64" y="-230.3" font-family="Times,serif" font-size="14.00">A</text>
</g>
<!-- B -->
<g id="node2" class="node">
<title>B</title>
<text text-anchor="middle" x="18" y="-158.3" font-family="Times,serif" font-size="14.00">B</text>
</g>
<!-- A&#45;&gt;B -->
<g id="edge3" class="edge">
<title>A&#45;&gt;B</title>
<path fill="none" stroke="blue" d="M52.63,-215.7C47.28,-207.56 40.8,-197.69 34.89,-188.7"/>
<polygon fill="blue" stroke="blue" points="37.66,-186.54 29.24,-180.1 31.81,-190.38 37.66,-186.54"/>
</g>
<!-- C -->
<g id="node3" class="node">
<title>C</title>
<text text-anchor="middle" x="56" y="-86.3" font-family="Times,serif" font-size="14.00">C</text>
</g>
<!-- A&#45;&gt;C -->
<g id="edge4" class="edge">
<title>A&#45;&gt;C</title>
<path fill="none" stroke="blue" d="M63.04,-215.87C61.67,-191.67 59.17,-147.21 57.54,-118.39"/>
<polygon fill="blue" stroke="blue" points="61.03,-117.98 56.97,-108.19 54.04,-118.37 61.03,-117.98"/>
</g>
<!-- D -->
<g id="node4" class="node">
<title>D</title>
<text text-anchor="middle" x="79" y="-14.3" font-family="Times,serif" font-size="14.00">D</text>
</g>
<!-- A&#45;&gt;D -->
<g id="edge2" class="edge">
<title>A&#45;&gt;D</title>
<path fill="none" stroke="blue" d="M67.51,-215.86C69.57,-205.51 72.12,-192.03 74,-180 81.46,-132.41 84.81,-120.13 83,-72 82.69,-63.67 82.09,-54.61 81.46,-46.38"/>
<polygon fill="blue" stroke="blue" points="84.93,-45.85 80.62,-36.17 77.95,-46.42 84.93,-45.85"/>
</g>
<!-- B&#45;&gt;C -->
<g id="edge5" class="edge">
<title>B&#45;&gt;C</title>
<path fill="none" stroke="blue" d="M27.39,-143.7C31.76,-135.64 37.06,-125.89 41.9,-116.98"/>
<polygon fill="blue" stroke="blue" points="45.02,-118.56 46.71,-108.1 38.87,-115.22 45.02,-118.56"/>
</g>
<!-- C&#45;&gt;D -->
<g id="edge1" class="edge">
<title>C&#45;&gt;D</title>
<path fill="none" stroke="blue" d="M61.69,-71.7C64.25,-63.9 67.33,-54.51 70.18,-45.83"/>
<polygon fill="blue" stroke="blue" points="73.58,-46.7 73.38,-36.1 66.93,-44.51 73.58,-46.7"/>
</g>
</g>
</svg>
