<?xml version="1.0" encoding="UTF-8" standalone="no"?>
<!DOCTYPE svg PUBLIC "-//W3C//DTD SVG 1.1//EN"
 "http://www.w3.org/Graphics/SVG/1.1/DTD/svg11.dtd">
<!-- Generated by graphviz version 2.43.0 (0)
 -->
<!-- Title: %3 Pages: 1 -->
<svg width="67pt" height="260pt"
 viewBox="0.00 0.00 67.00 260.00" xmlns="http://www.w3.org/2000/svg" xmlns:xlink="http://www.w3.org/1999/xlink">
<g id="graph0" class="graph" transform="scale(1 1) rotate(0) translate(4 256)">
<title>%3</title>
<polygon fill="white" stroke="transparent" points="-4,4 -4,-256 63,-256 63,4 -4,4"/>
<!-- A -->
<g id="node1" class="node">
<title>A</title>
<text text-anchor="middle" x="41" y="-230.3" font-family="Times,serif" font-size="14.00">A</text>
</g>
<!-- B -->
<g id="node2" class="node">
<title>B</title>
<text text-anchor="middle" x="18" y="-158.3" font-family="Times,serif" font-size="14.00">B</text>
</g>
<!-- A&#45;&gt;B -->
<g id="edge2" class="edge">
<title>A&#45;&gt;B</title>
<path fill="none" stroke="blue" d="M35.31,-215.7C32.75,-207.9 29.67,-198.51 26.82,-189.83"/>
<polygon fill="blue" stroke="blue" points="30.07,-188.51 23.62,-180.1 23.42,-190.7 30.07,-188.51"/>
</g>
<!-- D -->
<g id="node4" class="node">
<title>D</title>
<text text-anchor="middle" x="41" y="-14.3" font-family="Times,serif" font-size="14.00">D</text>
</g>
<!-- A&#45;&gt;D -->
<g id="edge1" class="edge">
<title>A&#45;&gt;D</title>
<path fill="none" stroke="blue" d="M42.62,-215.83C43.52,-205.47 44.55,-191.99 45,-180 46.81,-132.03 46.81,-119.97 45,-72 44.69,-63.67 44.09,-54.61 43.46,-46.38"/>
<polygon fill="blue" stroke="blue" points="46.93,-45.85 42.62,-36.17 39.95,-46.42 46.93,-45.85"/>
</g>
<!-- C -->
<g id="node3" class="node">
<title>C</title>
<text text-anchor="middle" x="18" y="-86.3" font-family="Times,serif" font-size="14.00">C</text>
</g>
<!-- B&#45;&gt;C -->
<g id="edge4" class="edge">
<title>B&#45;&gt;C</title>
<path fill="none" stroke="blue" d="M18,-143.7C18,-135.98 18,-126.71 18,-118.11"/>
<polygon fill="blue" stroke="blue" points="21.5,-118.1 18,-108.1 14.5,-118.1 21.5,-118.1"/>
</g>
<!-- C&#45;&gt;D -->
<g id="edge3" class="edge">
<title>C&#45;&gt;D</title>
<path fill="none" stroke="blue" d="M23.69,-71.7C26.25,-63.9 29.33,-54.51 32.18,-45.83"/>
<polygon fill="blue" stroke="blue" points="35.58,-46.7 35.38,-36.1 28.93,-44.51 35.58,-46.7"/>
</g>
</g>
</svg>
