<?xml version="1.0" encoding="UTF-8" standalone="no"?>
<!DOCTYPE svg PUBLIC "-//W3C//DTD SVG 1.1//EN"
 "http://www.w3.org/Graphics/SVG/1.1/DTD/svg11.dtd">
<!-- Generated by graphviz version 2.43.0 (0)
 -->
<!-- Title: %3 Pages: 1 -->
<svg width="117pt" height="188pt"
 viewBox="0.00 0.00 117.00 188.00" xmlns="http://www.w3.org/2000/svg" xmlns:xlink="http://www.w3.org/1999/xlink">
<g id="graph0" class="graph" transform="scale(1 1) rotate(0) translate(4 184)">
<title>%3</title>
<polygon fill="white" stroke="transparent" points="-4,4 -4,-184 113,-184 113,4 -4,4"/>
<!-- A -->
<g id="node1" class="node">
<title>A</title>
<text text-anchor="middle" x="18" y="-158.3" font-family="Times,serif" font-size="14.00">A</text>
</g>
<!-- C -->
<g id="node3" class="node">
<title>C</title>
<text text-anchor="middle" x="55" y="-86.3" font-family="Times,serif" font-size="14.00">C</text>
</g>
<!-- A&#45;&gt;C -->
<g id="edge3" class="edge">
<title>A&#45;&gt;C</title>
<path fill="none" stroke="blue" d="M27.15,-143.7C31.4,-135.64 36.56,-125.89 41.27,-116.98"/>
<polygon fill="blue" stroke="blue" points="44.38,-118.58 45.96,-108.1 38.19,-115.31 44.38,-118.58"/>
</g>
<!-- D -->
<g id="node4" class="node">
<title>D</title>
<text text-anchor="middle" x="55" y="-14.3" font-family="Times,serif" font-size="14.00">D</text>
</g>
<!-- A&#45;&gt;D -->
<g id="edge2" class="edge">
<title>A&#45;&gt;D</title>
<path fill="none" stroke="blue" d="M18.12,-143.91C18.65,-125.72 20.72,-96.27 28,-72 30.76,-62.8 35.08,-53.29 39.46,-44.91"/>
<polygon fill="blue" stroke="blue" points="42.6,-46.45 44.35,-36 36.47,-43.08 42.6,-46.45"/>
</g>
<!-- B -->
<g id="node2" class="node">
<title>B</title>
<text text-anchor="middle" x="91" y="-158.3" font-family="Times,serif" font-size="14.00">B</text>
</g>
<!-- B&#45;&gt;C -->
<g id="edge5" class="edge">
<title>B&#45;&gt;C</title>
<path fill="none" stroke="blue" d="M82.1,-143.7C78,-135.73 73.05,-126.1 68.51,-117.26"/>
<polygon fill="blue" stroke="blue" points="71.48,-115.4 63.8,-108.1 65.26,-118.6 71.48,-115.4"/>
</g>
<!-- B&#45;&gt;D -->
<g id="edge4" class="edge">
<title>B&#45;&gt;D</title>
<path fill="none" stroke="blue" d="M91.13,-143.91C90.84,-125.73 89.14,-96.29 82,-72 79.33,-62.93 75.12,-53.57 70.81,-45.29"/>
<polygon fill="blue" stroke="blue" points="73.85,-43.55 65.98,-36.46 67.71,-46.92 73.85,-43.55"/>
</g>
<!-- C&#45;&gt;D -->
<g id="edge1" class="edge">
<title>C&#45;&gt;D</title>
<path fill="none" stroke="blue" d="M55,-71.7C55,-63.98 55,-54.71 55,-46.11"/>
<polygon fill="blue" stroke="blue" points="58.5,-46.1 55,-36.1 51.5,-46.1 58.5,-46.1"/>
</g>
</g>
</svg>
