<?xml version="1.0" encoding="UTF-8" standalone="no"?>
<!DOCTYPE svg PUBLIC "-//W3C//DTD SVG 1.1//EN"
 "http://www.w3.org/Graphics/SVG/1.1/DTD/svg11.dtd">
<!-- Generated by graphviz version 2.43.0 (0)
 -->
<!-- Title: %3 Pages: 1 -->
<svg width="98pt" height="188pt"
 viewBox="0.00 0.00 98.00 188.00" xmlns="http://www.w3.org/2000/svg" xmlns:xlink="http://www.w3.org/1999/xlink">
<g id="graph0" class="graph" transform="scale(1 1) rotate(0) translate(4 184)">
<title>%3</title>
<polygon fill="white" stroke="transparent" points="-4,4 -4,-184 94,-184 94,4 -4,4"/>
<!-- A -->
<g id="node1" class="node">
<title>A</title>
<text text-anchor="middle" x="45" y="-158.3" font-family="Times,serif" font-size="14.00">A</text>
</g>
<!-- B -->
<g id="node2" class="node">
<title>B</title>
<text text-anchor="middle" x="18" y="-86.3" font-family="Times,serif" font-size="14.00">B</text>
</g>
<!-- A&#45;&gt;B -->
<g id="edge2" class="edge">
<title>A&#45;&gt;B</title>
<path fill="none" stroke="blue" d="M38.33,-143.7C35.29,-135.81 31.62,-126.3 28.24,-117.55"/>
<polygon fill="blue" stroke="blue" points="31.46,-116.17 24.6,-108.1 24.93,-118.69 31.46,-116.17"/>
</g>
<!-- D -->
<g id="node4" class="node">
<title>D</title>
<text text-anchor="middle" x="72" y="-86.3" font-family="Times,serif" font-size="14.00">D</text>
</g>
<!-- A&#45;&gt;D -->
<g id="edge1" class="edge">
<title>A&#45;&gt;D</title>
<path fill="none" stroke="blue" d="M51.67,-143.7C54.71,-135.81 58.38,-126.3 61.76,-117.55"/>
<polygon fill="blue" stroke="blue" points="65.07,-118.69 65.4,-108.1 58.54,-116.17 65.07,-118.69"/>
</g>
<!-- C -->
<g id="node3" class="node">
<title>C</title>
<text text-anchor="middle" x="18" y="-14.3" font-family="Times,serif" font-size="14.00">C</text>
</g>
<!-- B&#45;&gt;C -->
<g id="edge3" class="edge">
<title>B&#45;&gt;C</title>
<path fill="none" stroke="blue" d="M18,-71.7C18,-63.98 18,-54.71 18,-46.11"/>
<polygon fill="blue" stroke="blue" points="21.5,-46.1 18,-36.1 14.5,-46.1 21.5,-46.1"/>
</g>
</g>
</svg>
