<?xml version="1.0" encoding="UTF-8" standalone="no"?>
<!DOCTYPE svg PUBLIC "-//W3C//DTD SVG 1.1//EN"
 "http://www.w3.org/Graphics/SVG/1.1/DTD/svg11.dtd">
<!-- Generated by graphviz version 2.43.0 (0)
 -->
<!-- Title: %3 Pages: 1 -->
<svg width="99pt" height="260pt"
 viewBox="0.00 0.00 99.27 260.00" xmlns="http://www.w3.org/2000/svg" xmlns:xlink="http://www.w3.org/1999/xlink">
<g id="graph0" class="graph" transform="scale(1 1) rotate(0) translate(4 256)">
<title>%3</title>
<polygon fill="white" stroke="transparent" points="-4,4 -4,-256 95.27,-256 95.27,4 -4,4"/>
<!-- A -->
<g id="node1" class="node">
<title>A</title>
<text text-anchor="middle" x="60" y="-230.3" font-family="Times,serif" font-size="14.00">A</text>
</g>
<!-- B -->
<g id="node2" class="node">
<title>B</title>
<text text-anchor="middle" x="60" y="-158.3" font-family="Times,serif" font-size="14.00">B</text>
</g>
<!-- A&#45;&gt;B -->
<g id="edge3" class="edge">
<title>A&#45;&gt;B</title>
<path fill="none" stroke="blue" d="M60,-215.7C60,-207.98 60,-198.71 60,-190.11"/>
<polygon fill="blue" stroke="blue" points="63.5,-190.1 60,-180.1 56.5,-190.1 63.5,-190.1"/>
</g>
<!-- C -->
<g id="node3" class="node">
<title>C</title>
<text text-anchor="middle" x="18" y="-86.3" font-family="Times,serif" font-size="14.00">C</text>
</g>
<!-- A&#45;&gt;C -->
<g id="edge4" class="edge">
<title>A&#45;&gt;C</title>
<path fill="none" stroke="blue" d="M49.61,-215.91C43.9,-205.8 37.15,-192.55 33,-180 26.33,-159.82 22.52,-136.04 20.41,-118.15"/>
<polygon fill="blue" stroke="blue" points="23.88,-117.67 19.33,-108.1 16.92,-118.42 23.88,-117.67"/>
</g>
<!-- D -->
<g id="node4" class="node">
<title>D</title>
<text text-anchor="middle" x="64" y="-14.3" font-family="Times,serif" font-size="14.00">D</text>
</g>
<!-- A&#45;&gt;D -->
<g id="edge2" class="edge">
<title>A&#45;&gt;D</title>
<path fill="none" stroke="blue" d="M71.47,-215.67C77.37,-205.69 83.96,-192.65 87,-180 98.18,-133.42 84.44,-77.88 73.9,-45.7"/>
<polygon fill="blue" stroke="blue" points="77.17,-44.45 70.63,-36.12 70.55,-46.71 77.17,-44.45"/>
</g>
<!-- B&#45;&gt;C -->
<g id="edge6" class="edge">
<title>B&#45;&gt;C</title>
<path fill="none" stroke="blue" d="M49.62,-143.7C44.74,-135.56 38.81,-125.69 33.42,-116.7"/>
<polygon fill="blue" stroke="blue" points="36.41,-114.88 28.26,-108.1 30.41,-118.48 36.41,-114.88"/>
</g>
<!-- B&#45;&gt;D -->
<g id="edge5" class="edge">
<title>B&#45;&gt;D</title>
<path fill="none" stroke="blue" d="M60.48,-143.87C61.16,-119.67 62.42,-75.21 63.23,-46.39"/>
<polygon fill="blue" stroke="blue" points="66.73,-46.28 63.52,-36.19 59.74,-46.09 66.73,-46.28"/>
</g>
<!-- C&#45;&gt;D -->
<g id="edge1" class="edge">
<title>C&#45;&gt;D</title>
<path fill="none" stroke="blue" d="M29.37,-71.7C34.72,-63.56 41.2,-53.69 47.11,-44.7"/>
<polygon fill="blue" stroke="blue" points="50.19,-46.38 52.76,-36.1 44.34,-42.54 50.19,-46.38"/>
</g>
</g>
</svg>
