<?xml version="1.0" encoding="UTF-8" standalone="no"?>
<!DOCTYPE svg PUBLIC "-//W3C//DTD SVG 1.1//EN"
 "http://www.w3.org/Graphics/SVG/1.1/DTD/svg11.dtd">
<!-- Generated by graphviz version 2.43.0 (0)
 -->
<!-- Title: %3 Pages: 1 -->
<svg width="105pt" height="260pt"
 viewBox="0.00 0.00 105.00 260.00" xmlns="http://www.w3.org/2000/svg" xmlns:xlink="http://www.w3.org/1999/xlink">
<g id="graph0" class="graph" transform="scale(1 1) rotate(0) translate(4 256)">
<title>%3</title>
<polygon fill="white" stroke="transparent" points="-4,4 -4,-256 101,-256 101,4 -4,4"/>
<!-- A -->
<g id="node1" class="node">
<title>A</title>
<text text-anchor="middle" x="79" y="-230.3" font-family="Times,serif" font-size="14.00">A</text>
</g>
<!-- B -->
<g id="node2" class="node">
<title>B</title>
<text text-anchor="middle" x="56" y="-158.3" font-family="Times,serif" font-size="14.00">B</text>
</g>
<!-- A&#45;&gt;B -->
<g id="edge3" class="edge">
<title>A&#45;&gt;B</title>
<path fill="none" stroke="blue" d="M73.31,-215.7C70.75,-207.9 67.67,-198.51 64.82,-189.83"/>
<polygon fill="blue" stroke="blue" points="68.07,-188.51 61.62,-180.1 61.42,-190.7 68.07,-188.51"/>
</g>
<!-- D -->
<g id="node4" class="node">
<title>D</title>
<text text-anchor="middle" x="64" y="-14.3" font-family="Times,serif" font-size="14.00">D</text>
</g>
<!-- A&#45;&gt;D -->
<g id="edge2" class="edge">
<title>A&#45;&gt;D</title>
<path fill="none" stroke="blue" d="M80.62,-215.83C81.52,-205.47 82.55,-191.99 83,-180 84.81,-131.87 81.46,-119.59 74,-72 72.68,-63.54 71.02,-54.37 69.44,-46.07"/>
<polygon fill="blue" stroke="blue" points="72.86,-45.29 67.51,-36.14 65.99,-46.62 72.86,-45.29"/>
</g>
<!-- C -->
<g id="node3" class="node">
<title>C</title>
<text text-anchor="middle" x="18" y="-86.3" font-family="Times,serif" font-size="14.00">C</text>
</g>
<!-- B&#45;&gt;C -->
<g id="edge5" class="edge">
<title>B&#45;&gt;C</title>
<path fill="none" stroke="blue" d="M46.61,-143.7C42.24,-135.64 36.94,-125.89 32.1,-116.98"/>
<polygon fill="blue" stroke="blue" points="35.13,-115.22 27.29,-108.1 28.98,-118.56 35.13,-115.22"/>
</g>
<!-- B&#45;&gt;D -->
<g id="edge4" class="edge">
<title>B&#45;&gt;D</title>
<path fill="none" stroke="blue" d="M56.96,-143.87C58.33,-119.67 60.83,-75.21 62.46,-46.39"/>
<polygon fill="blue" stroke="blue" points="65.96,-46.37 63.03,-36.19 58.97,-45.98 65.96,-46.37"/>
</g>
<!-- C&#45;&gt;D -->
<g id="edge1" class="edge">
<title>C&#45;&gt;D</title>
<path fill="none" stroke="blue" d="M29.37,-71.7C34.72,-63.56 41.2,-53.69 47.11,-44.7"/>
<polygon fill="blue" stroke="blue" points="50.19,-46.38 52.76,-36.1 44.34,-42.54 50.19,-46.38"/>
</g>
</g>
</svg>
