<?xml version="1.0" encoding="UTF-8" standalone="no"?>
<!DOCTYPE svg PUBLIC "-//W3C//DTD SVG 1.1//EN"
 "http://www.w3.org/Graphics/SVG/1.1/DTD/svg11.dtd">
<!-- Generated by graphviz version 2.43.0 (0)
 -->
<!-- Title: %3 Pages: 1 -->
<svg width="110pt" height="188pt"
 viewBox="0.00 0.00 109.80 188.00" xmlns="http://www.w3.org/2000/svg" xmlns:xlink="http://www.w3.org/1999/xlink">
<g id="graph0" class="graph" transform="scale(1 1) rotate(0) translate(4 184)">
<title>%3</title>
<polygon fill="white" stroke="transparent" points="-4,4 -4,-184 105.8,-184 105.8,4 -4,4"/>
<!-- A -->
<g id="node1" class="node">
<title>A</title>
<text text-anchor="middle" x="72" y="-158.3" font-family="Times,serif" font-size="14.00">A</text>
</g>
<!-- B -->
<g id="node2" class="node">
<title>B</title>
<text text-anchor="middle" x="18" y="-86.3" font-family="Times,serif" font-size="14.00">B</text>
</g>
<!-- A&#45;&gt;B -->
<g id="edge3" class="edge">
<title>A&#45;&gt;B</title>
<path fill="none" stroke="blue" d="M58.65,-143.7C52.24,-135.39 44.44,-125.28 37.39,-116.14"/>
<polygon fill="blue" stroke="blue" points="40.07,-113.88 31.19,-108.1 34.53,-118.16 40.07,-113.88"/>
</g>
<!-- C -->
<g id="node3" class="node">
<title>C</title>
<text text-anchor="middle" x="72" y="-86.3" font-family="Times,serif" font-size="14.00">C</text>
</g>
<!-- A&#45;&gt;C -->
<g id="edge4" class="edge">
<title>A&#45;&gt;C</title>
<path fill="none" stroke="blue" d="M72,-143.7C72,-135.98 72,-126.71 72,-118.11"/>
<polygon fill="blue" stroke="blue" points="75.5,-118.1 72,-108.1 68.5,-118.1 75.5,-118.1"/>
</g>
<!-- D -->
<g id="node4" class="node">
<title>D</title>
<text text-anchor="middle" x="72" y="-14.3" font-family="Times,serif" font-size="14.00">D</text>
</g>
<!-- A&#45;&gt;D -->
<g id="edge2" class="edge">
<title>A&#45;&gt;D</title>
<path fill="none" stroke="blue" d="M83.47,-143.67C89.37,-133.69 95.96,-120.65 99,-108 102.73,-92.44 102.73,-87.56 99,-72 96.79,-62.81 92.71,-53.41 88.38,-45.13"/>
<polygon fill="blue" stroke="blue" points="91.4,-43.36 83.47,-36.33 85.28,-46.77 91.4,-43.36"/>
</g>
<!-- B&#45;&gt;D -->
<g id="edge5" class="edge">
<title>B&#45;&gt;D</title>
<path fill="none" stroke="blue" d="M31.35,-71.7C37.76,-63.39 45.56,-53.28 52.61,-44.14"/>
<polygon fill="blue" stroke="blue" points="55.47,-46.16 58.81,-36.1 49.93,-41.88 55.47,-46.16"/>
</g>
<!-- C&#45;&gt;D -->
<g id="edge1" class="edge">
<title>C&#45;&gt;D</title>
<path fill="none" stroke="blue" d="M72,-71.7C72,-63.98 72,-54.71 72,-46.11"/>
<polygon fill="blue" stroke="blue" points="75.5,-46.1 72,-36.1 68.5,-46.1 75.5,-46.1"/>
</g>
</g>
</svg>
