<?xml version="1.0" encoding="UTF-8" standalone="no"?>
<!DOCTYPE svg PUBLIC "-//W3C//DTD SVG 1.1//EN"
 "http://www.w3.org/Graphics/SVG/1.1/DTD/svg11.dtd">
<!-- Generated by graphviz version 2.43.0 (0)
 -->
<!-- Title: %3 Pages: 1 -->
<svg width="90pt" height="260pt"
 viewBox="0.00 0.00 90.00 260.00" xmlns="http://www.w3.org/2000/svg" xmlns:xlink="http://www.w3.org/1999/xlink">
<g id="graph0" class="graph" transform="scale(1 1) rotate(0) translate(4 256)">
<title>%3</title>
<polygon fill="white" stroke="transparent" points="-4,4 -4,-256 86,-256 86,4 -4,4"/>
<!-- A -->
<g id="node1" class="node">
<title>A</title>
<text text-anchor="middle" x="41" y="-230.3" font-family="Times,serif" font-size="14.00">A</text>
</g>
<!-- B -->
<g id="node2" class="node">
<title>B</title>
<text text-anchor="middle" x="64" y="-158.3" font-family="Times,serif" font-size="14.00">B</text>
</g>
<!-- A&#45;&gt;B -->
<g id="edge2" class="edge">
<title>A&#45;&gt;B</title>
<path fill="none" stroke="blue" d="M46.69,-215.7C49.25,-207.9 52.33,-198.51 55.18,-189.83"/>
<polygon fill="blue" stroke="blue" points="58.58,-190.7 58.38,-180.1 51.93,-188.51 58.58,-190.7"/>
</g>
<!-- C -->
<g id="node3" class="node">
<title>C</title>
<text text-anchor="middle" x="18" y="-86.3" font-family="Times,serif" font-size="14.00">C</text>
</g>
<!-- A&#45;&gt;C -->
<g id="edge3" class="edge">
<title>A&#45;&gt;C</title>
<path fill="none" stroke="blue" d="M38.23,-215.87C34.31,-191.67 27.1,-147.21 22.44,-118.39"/>
<polygon fill="blue" stroke="blue" points="25.84,-117.5 20.78,-108.19 18.93,-118.62 25.84,-117.5"/>
</g>
<!-- B&#45;&gt;C -->
<g id="edge5" class="edge">
<title>B&#45;&gt;C</title>
<path fill="none" stroke="blue" d="M52.63,-143.7C47.28,-135.56 40.8,-125.69 34.89,-116.7"/>
<polygon fill="blue" stroke="blue" points="37.66,-114.54 29.24,-108.1 31.81,-118.38 37.66,-114.54"/>
</g>
<!-- D -->
<g id="node4" class="node">
<title>D</title>
<text text-anchor="middle" x="41" y="-14.3" font-family="Times,serif" font-size="14.00">D</text>
</g>
<!-- B&#45;&gt;D -->
<g id="edge4" class="edge">
<title>B&#45;&gt;D</title>
<path fill="none" stroke="blue" d="M61.23,-143.87C57.31,-119.67 50.1,-75.21 45.44,-46.39"/>
<polygon fill="blue" stroke="blue" points="48.84,-45.5 43.78,-36.19 41.93,-46.62 48.84,-45.5"/>
</g>
<!-- C&#45;&gt;D -->
<g id="edge1" class="edge">
<title>C&#45;&gt;D</title>
<path fill="none" stroke="blue" d="M23.69,-71.7C26.25,-63.9 29.33,-54.51 32.18,-45.83"/>
<polygon fill="blue" stroke="blue" points="35.58,-46.7 35.38,-36.1 28.93,-44.51 35.58,-46.7"/>
</g>
</g>
</svg>
