<?xml version="1.0" encoding="UTF-8" standalone="no"?>
<!DOCTYPE svg PUBLIC "-//W3C//DTD SVG 1.1//EN"
 "http://www.w3.org/Graphics/SVG/1.1/DTD/svg11.dtd">
<!-- Generated by graphviz version 2.43.0 (0)
 -->
<!-- Title: %3 Pages: 1 -->
<svg width="136pt" height="188pt"
 viewBox="0.00 0.00 136.00 188.00" xmlns="http://www.w3.org/2000/svg" xmlns:xlink="http://www.w3.org/1999/xlink">
<g id="graph0" class="graph" transform="scale(1 1) rotate(0) translate(4 184)">
<title>%3</title>
<polygon fill="white" stroke="transparent" points="-4,4 -4,-184 132,-184 132,4 -4,4"/>
<!-- A -->
<g id="node1" class="node">
<title>A</title>
<text text-anchor="middle" x="41" y="-158.3" font-family="Times,serif" font-size="14.00">A</text>
</g>
<!-- B -->
<g id="node2" class="node">
<title>B</title>
<text text-anchor="middle" x="18" y="-86.3" font-family="Times,serif" font-size="14.00">B</text>
</g>
<!-- A&#45;&gt;B -->
<g id="edge2" class="edge">
<title>A&#45;&gt;B</title>
<path fill="none" stroke="blue" d="M35.31,-143.7C32.75,-135.9 29.67,-126.51 26.82,-117.83"/>
<polygon fill="blue" stroke="blue" points="30.07,-116.51 23.62,-108.1 23.42,-118.7 30.07,-116.51"/>
</g>
<!-- D -->
<g id="node4" class="node">
<title>D</title>
<text text-anchor="middle" x="64" y="-14.3" font-family="Times,serif" font-size="14.00">D</text>
</g>
<!-- A&#45;&gt;D -->
<g id="edge1" class="edge">
<title>A&#45;&gt;D</title>
<path fill="none" stroke="blue" d="M43.77,-143.87C47.69,-119.67 54.9,-75.21 59.56,-46.39"/>
<polygon fill="blue" stroke="blue" points="63.07,-46.62 61.22,-36.19 56.16,-45.5 63.07,-46.62"/>
</g>
<!-- B&#45;&gt;D -->
<g id="edge4" class="edge">
<title>B&#45;&gt;D</title>
<path fill="none" stroke="blue" d="M29.37,-71.7C34.72,-63.56 41.2,-53.69 47.11,-44.7"/>
<polygon fill="blue" stroke="blue" points="50.19,-46.38 52.76,-36.1 44.34,-42.54 50.19,-46.38"/>
</g>
<!-- C -->
<g id="node3" class="node">
<title>C</title>
<text text-anchor="middle" x="110" y="-86.3" font-family="Times,serif" font-size="14.00">C</text>
</g>
<!-- C&#45;&gt;D -->
<g id="edge3" class="edge">
<title>C&#45;&gt;D</title>
<path fill="none" stroke="blue" d="M98.63,-71.7C93.28,-63.56 86.8,-53.69 80.89,-44.7"/>
<polygon fill="blue" stroke="blue" points="83.66,-42.54 75.24,-36.1 77.81,-46.38 83.66,-42.54"/>
</g>
</g>
</svg>
